<?xml version="1.0" encoding="UTF-8"?>
<!DOCTYPE svg PUBLIC "-//W3C//DTD SVG 1.1//EN" "http://www.w3.org/Graphics/SVG/1.1/DTD/svg11.dtd">
<!-- Creator: CorelDRAW X8 -->
<svg xmlns="http://www.w3.org/2000/svg" xml:space="preserve" width="297mm" height="210mm" version="1.1" style="shape-rendering:geometricPrecision; text-rendering:geometricPrecision; image-rendering:optimizeQuality; fill-rule:evenodd; clip-rule:evenodd"
viewBox="0 0 29700 21000"
 xmlns:xlink="http://www.w3.org/1999/xlink">
 <defs>
  <style type="text/css">
   <![CDATA[
    .fil0 {fill:#06121E}
    .fil2 {fill:white}
    .fil1 {fill:white;fill-rule:nonzero}
   ]]>
  </style>
 </defs>
 <g id="Слой_x0020_1">
  <metadata id="CorelCorpID_0Corel-Layer"/>
  <path class="fil0" d="M14983 9192c0,113 34,117 103,171 -38,197 -125,173 73,315 99,70 211,118 334,161 261,92 570,122 867,122 385,1 890,-59 1205,-279 216,-150 110,-168 81,-319 69,-56 102,-58 103,-172 323,-53 756,-387 877,-711 70,-185 39,-261 -22,-438 -54,-152 -38,-76 99,-369 56,-117 106,-255 138,-396 70,-311 50,-653 -29,-953 -284,-1073 -1130,-1826 -2439,-1828 -1322,-3 -2163,750 -2450,1818 -84,311 -101,630 -34,953 48,235 127,376 222,571 51,105 63,73 20,194 -57,161 -93,267 -29,439 121,329 557,670 881,721zm1387 -125c137,109 448,123 127,-337 -38,-56 -96,-122 -120,-179 -3,2 -7,2 -9,7l-63 74c-21,32 -41,58 -65,90 -238,337 -173,513 130,345zm432 -607c5,67 23,59 83,91 297,162 505,326 865,158 271,-126 421,-349 335,-643 -55,-185 19,-85 19,-251l-268 213c-91,65 -193,127 -307,188 -344,181 -463,156 -727,244zm-2146 -527c37,65 1,86 -19,174 -44,207 28,397 200,514 451,308 596,89 748,85 60,-96 336,-119 346,-247 -182,-72 -359,-50 -727,-244 -194,-103 -280,-165 -440,-288 -49,-38 -89,-85 -136,-113 0,50 11,83 28,119z"/>
  <path class="fil1" d="M16600 7353c-2,0 -4,1 -7,3 -2,1 -4,2 -5,2 -17,5 -35,4 -53,-5 -18,-9 -30,-21 -34,-36 -4,-14 -2,-28 8,-44 47,-49 97,-98 152,-145 95,-76 193,-135 293,-178 1,-2 2,-3 4,-3 26,-8 52,-10 79,-6 27,5 48,16 64,34 6,7 10,15 12,23 6,19 4,39 -7,59 -11,21 -25,39 -44,52 -16,13 -43,29 -80,48 -36,20 -63,34 -79,45 -2,3 -18,13 -48,31 -30,18 -49,34 -59,48 3,53 10,101 22,143 97,-18 267,-118 335,-164 0,3 1,5 2,8 5,11 11,21 19,30 6,6 13,12 19,16 -5,13 -13,26 -25,40 -70,73 -154,142 -253,209 -4,3 -18,12 -42,26 -25,15 -40,29 -46,43 2,26 7,50 13,71 6,19 14,37 23,53 19,31 50,39 93,26 10,-3 18,-7 26,-11 78,-43 154,-115 230,-216 23,-34 50,-56 81,-65 23,-7 44,-5 65,7 21,12 35,29 42,52 10,33 6,66 -12,97 -58,93 -133,175 -226,247 -53,40 -104,67 -153,82 -80,25 -153,18 -219,-21 -66,-39 -110,-96 -133,-171 -1,-3 -2,-7 -2,-13 -1,-5 -1,-9 -2,-11 -3,-8 -8,-14 -16,-17 -7,-4 -17,-6 -30,-7 -12,-2 -21,-3 -26,-5 -5,-6 -9,-13 -11,-19 -3,-11 -2,-23 4,-36 6,-12 14,-26 25,-41 11,-14 18,-26 21,-34 1,-16 0,-41 -2,-76 -1,-20 6,-160 5,-163 -3,-9 -10,-12 -23,-8z"/>
  <path class="fil1" d="M18274 7259c23,26 32,54 25,85 -6,31 -24,54 -45,80 -135,159 -284,280 -420,362 -145,87 -237,113 -291,53 -19,-21 -30,-46 -32,-74 -3,-30 -4,-60 -5,-93 -1,-33 -2,-61 -3,-84 0,-23 0,-55 0,-96 1,-40 2,-68 3,-84 0,-16 1,-48 3,-96 1,-48 2,-77 3,-87 -1,-8 0,-30 3,-65 2,-36 0,-62 -8,-79 -10,11 -21,21 -31,31 -22,19 -43,37 -64,53 -9,6 -21,15 -36,27 -16,12 -28,21 -38,28 -9,7 -21,15 -36,23 -15,9 -28,16 -41,21 -18,10 -33,8 -45,-5 -7,-7 -11,-17 -11,-28 0,-11 4,-20 13,-28 3,-3 7,-5 13,-7 26,-23 50,-43 70,-61 55,-50 99,-98 133,-143 15,-17 34,-42 57,-77 24,-35 42,-60 54,-76 2,-2 4,-4 5,-5 17,-15 37,-22 61,-19 23,2 43,12 59,29 6,7 11,15 14,24 24,60 40,137 46,229 1,40 1,81 -1,124 -1,43 -2,92 -4,145 -2,53 -3,94 -3,124 1,5 1,19 -2,44 -2,24 -1,39 4,44 4,5 10,6 20,4 81,-68 205,-175 370,-323 24,-21 50,-31 82,-31 32,-1 58,10 78,31z"/>
  <path class="fil2" d="M15263 5525c-388,500 -527,781 -501,1364 -31,-111 -49,-257 -49,-454 -129,279 -172,569 -144,848l-6 13c-143,-664 90,-1372 700,-1771z"/>
 </g>
</svg>
