<?xml version="1.0" encoding="UTF-8"?>
<!DOCTYPE svg PUBLIC "-//W3C//DTD SVG 1.1//EN" "http://www.w3.org/Graphics/SVG/1.1/DTD/svg11.dtd">
<!-- Creator: CorelDRAW X8 -->
<svg xmlns="http://www.w3.org/2000/svg" xml:space="preserve" width="297mm" height="210mm" version="1.1" style="shape-rendering:geometricPrecision; text-rendering:geometricPrecision; image-rendering:optimizeQuality; fill-rule:evenodd; clip-rule:evenodd"
viewBox="0 0 29700 21000"
 xmlns:xlink="http://www.w3.org/1999/xlink">
 <defs>
  <style type="text/css">
   <![CDATA[
    .fil0 {fill:#06121E}
   ]]>
  </style>
 </defs>
 <g id="Слой_x0020_1">
  <metadata id="CorelCorpID_0Corel-Layer"/>
  <path class="fil0" d="M8880 9192c0,113 34,117 102,171 -37,197 -124,173 74,315 99,70 211,118 334,161 261,92 570,122 867,122 385,1 890,-59 1205,-279 216,-150 110,-168 81,-319 69,-56 102,-58 103,-172 323,-53 756,-387 877,-711 70,-185 39,-261 -22,-438 -54,-152 -39,-76 99,-369 56,-117 106,-255 138,-396 70,-311 50,-653 -29,-953 -284,-1073 -1130,-1826 -2439,-1828 -1322,-3 -2163,750 -2450,1818 -84,311 -101,630 -35,953 49,235 128,376 223,571 51,105 63,73 20,194 -57,161 -93,267 -29,439 121,329 557,670 881,721zm3291 -1933c23,26 31,54 25,85 -6,31 -24,54 -45,80 -135,159 -284,280 -420,362 -145,87 -237,113 -291,53 -19,-21 -30,-46 -32,-74 -3,-30 -5,-60 -5,-93 -1,-33 -2,-61 -3,-84 0,-23 0,-55 0,-96 1,-40 2,-68 2,-84 1,-16 2,-48 4,-96 1,-48 2,-77 3,-87 -1,-8 0,-30 3,-65 2,-36 0,-62 -8,-79 -10,11 -21,21 -31,31 -22,19 -43,37 -64,53 -9,6 -21,15 -36,27 -16,12 -28,21 -38,28 -9,7 -21,15 -36,23 -15,9 -28,16 -41,21 -18,10 -33,8 -45,-5 -7,-7 -11,-17 -11,-28 0,-11 4,-20 13,-28 3,-3 7,-5 12,-7 27,-23 51,-43 71,-61 55,-50 99,-98 133,-143 15,-17 34,-42 57,-77 24,-35 42,-60 54,-76 2,-2 3,-4 5,-5 17,-15 37,-22 60,-19 24,2 44,12 60,29 6,7 11,15 14,24 24,60 40,137 46,229 1,40 1,81 -1,124 -1,43 -2,92 -4,145 -2,53 -3,94 -3,124 1,5 1,19 -2,44 -2,24 -1,39 4,44 4,5 10,6 20,4 81,-68 205,-175 370,-323 23,-21 50,-31 82,-31 32,-1 58,10 78,31zm-1674 94c-2,0 -4,1 -7,3 -2,1 -4,2 -5,2 -17,5 -35,4 -53,-5 -18,-9 -30,-21 -34,-36 -5,-14 -2,-28 8,-44 47,-49 97,-98 152,-145 95,-76 192,-135 293,-178 1,-2 2,-3 4,-3 26,-8 52,-10 79,-6 27,5 48,16 64,34 6,7 10,15 12,23 6,19 4,39 -7,59 -11,21 -25,39 -44,52 -16,13 -43,29 -80,48 -36,20 -63,34 -79,45 -2,3 -18,13 -48,31 -30,18 -50,34 -59,48 3,53 10,101 22,143 97,-18 267,-118 334,-164 1,3 2,5 3,8 5,11 11,21 19,30 6,6 12,12 19,16 -5,13 -13,26 -25,40 -70,73 -154,142 -253,209 -4,3 -18,12 -42,26 -25,15 -40,29 -46,43 2,26 7,50 13,71 6,19 14,37 23,53 19,31 50,39 93,26 10,-3 18,-7 26,-11 78,-43 154,-115 230,-216 23,-34 50,-56 81,-65 23,-7 44,-5 65,7 21,12 35,29 42,52 10,33 6,66 -12,97 -58,93 -133,175 -226,247 -53,40 -104,67 -153,82 -80,25 -153,18 -219,-21 -66,-39 -110,-96 -133,-171 -1,-3 -2,-7 -2,-13 -1,-5 -1,-9 -2,-11 -3,-8 -8,-14 -16,-17 -7,-4 -17,-6 -30,-7 -12,-2 -21,-3 -26,-5 -5,-6 -9,-13 -11,-19 -3,-11 -2,-23 4,-36 5,-12 14,-26 25,-41 10,-14 18,-26 21,-34 1,-16 0,-41 -2,-76 -1,-20 6,-160 5,-163 -3,-9 -10,-12 -23,-8zm-1409 -1828c-388,500 -527,781 -502,1364 -31,-111 -49,-257 -48,-454 -130,279 -173,569 -144,848l-7 13c-143,-664 90,-1372 701,-1771zm1611 2935c5,67 23,59 83,91 297,162 505,326 865,158 271,-126 421,-349 334,-643 -54,-185 19,-85 19,-251l-267 213c-91,65 -193,127 -307,188 -344,181 -464,156 -727,244zm-872 0c-6,67 -23,59 -83,91 -297,162 -505,326 -865,158 -271,-126 -421,-349 -335,-643 55,-185 -19,-85 -19,-251l268 213c91,65 193,127 307,188 344,181 463,156 727,244zm440 607c137,109 448,123 127,-337 -38,-56 -96,-122 -120,-179 -3,2 -8,2 -9,7l-63 74c-22,32 -42,58 -65,90 -238,337 -174,513 130,345zm-622 572l85 15c10,-73 15,-94 58,-137l10 17c98,177 128,149 394,154l62 -148c26,18 6,-3 30,28l51 120c255,-5 262,17 347,-82 10,-12 18,-21 28,-38 3,-5 9,-18 13,-25l10 -17c1,-2 3,-6 5,-9 43,43 49,64 59,136 103,-12 174,-17 238,-71 69,-58 65,-96 158,-144l-16 120c210,-60 181,-103 95,-376 -22,-69 3,-23 -31,-48 -51,-38 -141,-33 -239,-183 375,129 727,15 977,-182 509,-401 267,-532 203,-868 168,-133 279,-413 320,-627 146,-761 -254,-1556 -855,-1957 -618,-411 -1572,-489 -2317,-226 -889,314 -1508,1291 -1293,2237 53,230 169,463 308,572 -54,299 -315,467 196,862 118,92 262,165 436,215 214,61 347,35 549,-27 -29,52 -75,99 -134,133 -55,33 -107,33 -130,80 -4,9 -12,46 -16,61 -49,195 -143,259 99,334l-10 -121c139,67 98,175 310,202z"/>
 </g>
</svg>
