<!-- Generated by IcoMoon.io -->
<svg version="1.1" xmlns="http://www.w3.org/2000/svg" width="960" height="1024" viewBox="0 0 960 1024">
<title></title>
<g id="icomoon-ignore">
</g>
<path fill="#06121e" d="M220.896 879.9c-60.709-9.557-142.403-73.451-165.074-135.094-11.993-32.228-5.245-52.090 5.433-82.255 8.058-22.671 5.81-16.677-3.747-36.351-17.799-36.539-32.604-62.957-41.596-106.99-12.554-60.521-9.368-120.293 6.371-178.566 53.777-200.115 211.355-341.204 459.064-340.643 245.27 0.377 403.788 141.465 457.001 342.518 14.802 56.213 18.548 120.293 5.433 178.566-5.994 26.418-15.363 52.279-25.857 74.201-25.669 54.899-28.67 40.659-18.548 69.14 11.428 33.166 17.238 47.406 4.123 82.070-22.671 60.709-103.804 123.29-164.325 133.223-0.188 21.361-6.371 21.734-19.298 32.228 5.433 28.293 25.296 31.667-15.178 59.772-59.022 41.223-153.647 52.463-225.784 52.279-55.649 0-113.549-5.622-162.454-22.86-23.048-8.058-44.032-17.050-62.581-30.168-37.1-26.606-20.8-22.11-13.68-59.022-12.93-10.118-19.298-10.867-19.298-32.040zM480.779 856.479c25.669 20.423 83.942 23.048 23.797-63.146-7.12-10.494-17.987-22.86-22.483-33.538-0.561 0.377-1.31 0.377-1.687 1.31l-11.804 13.864c-3.935 5.994-7.681 10.867-12.181 16.865-44.593 63.146-32.416 96.123 24.358 64.644zM561.728 742.746c0.938 12.554 4.311 11.055 15.551 17.050 55.649 30.353 94.624 61.082 162.077 29.603 50.776-23.609 78.885-65.393 62.769-120.481-10.306-34.664 3.558-15.928 3.558-47.030l-50.215 39.909c-17.050 12.181-36.163 23.797-57.524 35.225-64.456 33.915-86.754 29.231-136.22 45.719zM159.622 643.998c6.932 12.181 0.188 16.116-3.558 32.604-8.246 38.787 5.245 74.385 37.473 96.311 84.507 57.712 111.674 16.677 140.155 15.928 11.243-17.987 62.957-22.299 64.832-46.28-34.103-13.491-67.269-9.368-136.22-45.719-36.351-19.298-52.463-30.918-82.443-53.962-9.18-7.12-16.677-15.928-25.484-21.173 0 9.368 2.060 15.551 5.245 22.299z"></path>
<path fill="#fff" d="M523.878 535.322c-0.377 0-0.749 0.188-1.31 0.561-0.377 0.188-0.749 0.377-0.938 0.377-3.186 0.938-6.559 0.749-9.929-0.938s-5.622-3.935-6.371-6.744c-0.749-2.624-0.377-5.245 1.499-8.246 8.807-9.18 18.176-18.364 28.481-27.167 17.799-14.241 36.163-25.296 54.899-33.354 0.188-0.377 0.377-0.561 0.749-0.561 4.872-1.499 9.745-1.875 14.802-1.126 5.061 0.938 8.996 2.997 11.993 6.371 1.126 1.31 1.875 2.809 2.248 4.311 1.126 3.558 0.749 7.309-1.31 11.055-2.060 3.935-4.684 7.309-8.246 9.745-2.997 2.436-8.058 5.433-14.99 8.996-6.744 3.747-11.804 6.371-14.802 8.431-0.377 0.561-3.374 2.436-8.996 5.81s-9.18 6.371-11.055 8.996c0.561 9.929 1.875 18.925 4.123 26.794 18.176-3.374 50.027-22.11 62.769-30.729 0 0.561 0.188 0.938 0.377 1.499 0.938 2.060 2.060 3.935 3.558 5.622 1.126 1.126 2.436 2.248 3.558 2.997-0.938 2.436-2.436 4.872-4.684 7.493-13.115 13.68-28.854 26.606-47.406 39.16-0.749 0.561-3.374 2.248-7.87 4.872-4.684 2.809-7.493 5.433-8.619 8.058 0.377 4.872 1.31 9.368 2.436 13.303 1.126 3.558 2.624 6.932 4.311 9.929 3.558 5.81 9.368 7.309 17.426 4.872 1.875-0.561 3.374-1.31 4.872-2.060 14.613-8.058 28.854-21.549 43.095-40.474 4.311-6.371 9.368-10.494 15.178-12.181 4.311-1.31 8.246-0.938 12.181 1.31s6.559 5.433 7.87 9.745c1.875 6.183 1.126 12.365-2.248 18.176-10.867 17.426-24.919 32.789-42.345 46.28-9.929 7.493-19.486 12.554-28.67 15.363-14.99 4.684-28.67 3.374-41.035-3.935s-20.612-17.987-24.919-32.040c-0.188-0.561-0.377-1.31-0.377-2.436-0.188-0.938-0.188-1.687-0.377-2.060-0.561-1.499-1.499-2.624-2.997-3.186-1.31-0.749-3.186-1.126-5.622-1.31-2.248-0.377-3.935-0.561-4.872-0.938-0.938-1.126-1.687-2.436-2.060-3.558-0.561-2.060-0.377-4.311 0.749-6.744 1.126-2.248 2.624-4.872 4.684-7.681 2.060-2.624 3.374-4.872 3.935-6.371 0.188-2.997 0-7.681-0.377-14.241-0.188-3.747 1.126-29.98 0.938-30.541-0.561-1.687-1.875-2.248-4.311-1.499z"></path>
<path fill="#fff" d="M837.538 517.711c4.311 4.872 5.994 10.118 4.684 15.928-1.126 5.81-4.496 10.118-8.431 14.99-25.296 29.792-53.212 52.463-78.697 67.83-27.167 16.3-44.409 21.173-54.527 9.929-3.558-3.935-5.622-8.619-5.994-13.864-0.561-5.622-0.749-11.243-0.938-17.426s-0.377-11.428-0.561-15.739c0-4.311 0-10.306 0-17.987 0.188-7.493 0.377-12.742 0.561-15.739 0-2.997 0.188-8.996 0.561-17.987 0.188-8.996 0.377-14.429 0.561-16.3-0.188-1.499 0-5.622 0.561-12.181 0.377-6.744 0-11.616-1.499-14.802-1.875 2.060-3.935 3.935-5.81 5.81-4.123 3.558-8.058 6.932-11.993 9.929-1.687 1.126-3.935 2.809-6.744 5.061-2.997 2.248-5.245 3.935-7.12 5.245-1.687 1.31-3.935 2.809-6.744 4.311-2.809 1.687-5.245 2.997-7.681 3.935-3.374 1.875-6.183 1.499-8.431-0.938-1.31-1.31-2.060-3.186-2.060-5.245s0.749-3.747 2.436-5.245c0.561-0.561 1.31-0.938 2.436-1.31 4.872-4.311 9.368-8.058 13.115-11.428 10.306-9.368 18.548-18.364 24.919-26.794 2.809-3.186 6.371-7.87 10.679-14.429 4.496-6.559 7.87-11.243 10.118-14.241 0.377-0.377 0.749-0.749 0.938-0.938 3.186-2.809 6.932-4.123 11.428-3.558 4.311 0.377 8.058 2.248 11.055 5.433 1.126 1.31 2.060 2.809 2.624 4.496 4.496 11.243 7.493 25.669 8.619 42.907 0.188 7.493 0.188 15.178-0.188 23.232-0.188 8.058-0.377 17.238-0.749 27.167s-0.561 17.614-0.561 23.232c0.188 0.938 0.188 3.558-0.377 8.246-0.377 4.496-0.188 7.309 0.749 8.246 0.749 0.938 1.875 1.126 3.747 0.749 15.178-12.742 38.411-32.789 69.328-60.521 4.496-3.935 9.368-5.81 15.363-5.81 5.994-0.188 10.867 1.875 14.613 5.81z"></path>
<path fill="#fff" d="M273.359 192.807c-72.702 93.687-98.747 146.338-93.875 255.575-5.81-20.8-9.18-48.156-9.18-85.068-24.17 52.279-32.228 106.617-26.983 158.892l-1.126 2.436c-26.794-124.416 16.865-257.074 131.16-331.836z"></path>
</svg>
